<?xml version="1.0" encoding="UTF-8" standalone="no"?>
<svg
        xmlns:dc="http://purl.org/dc/elements/1.1/"
        xmlns:cc="http://creativecommons.org/ns#"
        xmlns:rdf="http://www.w3.org/1999/02/22-rdf-syntax-ns#"
        xmlns:svg="http://www.w3.org/2000/svg"
        xmlns="http://www.w3.org/2000/svg"
        viewBox="0 0 482.66666 156"
        height="156"
        width="482.66666"
        xml:space="preserve"
        id="svg2"
        version="1.1"><metadata
     id="metadata8"><rdf:RDF><cc:Work
         rdf:about=""><dc:format>image/svg+xml</dc:format><dc:type
        rdf:resource="http://purl.org/dc/dcmitype/StillImage"/></cc:Work></rdf:RDF></metadata>
    <defs
            id="defs6"/>
    <g
            transform="matrix(1.3333333,0,0,-1.3333333,0,156)"
            id="g10"><g
       transform="scale(0.1)"
       id="g12"><path
         id="path14"
         style="fill:#9b2823;fill-opacity:1;fill-rule:nonzero;stroke:none"
         d="M 6.54297,1162.27 133.441,346.918 1809.3,6.44922 3485.13,347.348 3612.05,1162.27 H 6.54297" /><path
            id="path16"
            style="fill:#ffffff;fill-opacity:1;fill-rule:nonzero;stroke:none"
            d="m 798.25,653.723 c 31.629,0 57.789,27.992 57.789,63.269 0,35.274 -26.16,62.66 -57.789,62.66 H 711.867 V 653.723 Z M 711.867,580.125 V 432.293 h -83.949 v 425.82 H 798.25 c 78.469,0 141.727,-63.258 141.727,-141.121 0,-53.527 -33.446,-101.586 -82.118,-124.097 L 952.148,432.293 H 861.52 l -85.782,147.832 h -63.871"/><path
            id="path18"
            style="fill:#ffffff;fill-opacity:1;fill-rule:nonzero;stroke:none"
            d="m 1131.61,674.406 c -41.97,0 -70.56,-22.508 -79.69,-61.449 h 155.12 c -9.73,43.801 -42.58,61.449 -75.43,61.449 z m 7.3,-179.449 c 30.42,0 54.75,12.77 68.13,30.418 l 63.27,-36.508 c -28.59,-41.359 -74.22,-65.082 -132.61,-65.082 -102.2,0 -166.688,69.961 -166.688,160.594 0,90.648 65.098,160.598 160.598,160.598 90.03,0 153.91,-71.18 153.91,-160.598 0,-11.563 -1.22,-21.902 -3.05,-32.254 h -229.33 c 10.95,-40.141 44.4,-57.168 85.77,-57.168"/><path
            id="path20"
            style="fill:#ffffff;fill-opacity:1;fill-rule:nonzero;stroke:none"
            d="M 1786.17,619.66 V 432.301 H 1707.7 V 614.18 c 0,35.89 -18.25,57.789 -51.1,57.789 -34.67,0 -56.57,-23.106 -56.57,-68.739 V 432.301 h -78.48 V 614.18 c 0,35.89 -18.25,57.789 -51.09,57.789 -33.46,0 -57.19,-23.106 -57.19,-68.739 V 432.301 h -78.47 v 304.16 h 78.47 v -32.25 c 17.03,25.551 45.62,40.762 84.56,40.762 37.72,0 65.7,-15.821 82.73,-43.805 18.85,27.383 49.26,43.805 90.64,43.805 69.35,0 114.97,-49.27 114.97,-125.313"/><path
            id="path22"
            style="fill:#ffffff;fill-opacity:1;fill-rule:nonzero;stroke:none"
            d="m 2078.78,584.379 c 0,51.09 -35.89,85.769 -84.56,85.769 -48.05,0 -83.94,-34.679 -83.94,-85.769 0,-51.102 35.89,-85.77 83.94,-85.77 48.67,0 84.56,34.668 84.56,85.77 z m 78.47,-152.082 h -78.47 v 35.891 c -21.9,-27.368 -54.75,-44.411 -99.16,-44.411 -80.9,0 -147.82,69.969 -147.82,160.602 0,90.637 66.92,160.598 147.82,160.598 44.41,0 77.26,-17.047 99.16,-44.407 v 35.887 h 78.47 v -304.16"/><path
            id="path24"
            style="fill:#ffffff;fill-opacity:1;fill-rule:nonzero;stroke:none"
            d="m 2300.82,432.301 h -78.47 V 874.75 h 78.47 V 432.301"/><path
            id="path26"
            style="fill:#ffffff;fill-opacity:1;fill-rule:nonzero;stroke:none"
            d="m 2646.35,432.297 h -78.47 v 34.062 c -18.25,-27.371 -49.88,-42.582 -90.64,-42.582 -64.48,0 -114.97,45.012 -114.97,125.922 v 186.758 h 78.47 V 559.438 c 0,-41.368 24.94,-62.661 60.22,-62.661 38.32,0 66.92,22.512 66.92,75.43 v 164.25 h 78.47 v -304.16"/><path
            id="path28"
            style="fill:#ffffff;fill-opacity:1;fill-rule:nonzero;stroke:none"
            d="m 2834.33,524.758 -66.3,-92.461 h -90.65 l 111.33,155.121 -106.46,149.039 h 90.64 l 61.44,-85.769 61.44,85.769 h 90.03 l -106.46,-148.43 111.32,-155.73 h -90.63 l -65.7,92.461"/><path
            id="path30"
            style="fill:#ffffff;fill-opacity:1;fill-rule:nonzero;stroke:none"
            d="m 3060.38,808.469 c 5.35,0 8.59,2.859 8.59,6.871 0,4.98 -3.24,7.078 -8.59,7.078 h -6.3 v -13.949 z m 18.53,-12.227 14.51,-25.972 h -21.96 l -10.12,21 h -7.26 v -21 h -20.44 v 70.671 h 28.45 c 15.1,0 27.32,-9.351 27.32,-23.503 0,-9.348 -4.01,-16.618 -10.5,-21.196 z m 42.78,9.367 c 0,34.571 -27.69,62.653 -61.88,62.653 -34.39,0 -62.08,-28.082 -62.08,-62.653 0,-34.578 27.69,-62.66 62.08,-62.66 34.19,0 61.88,28.082 61.88,62.66 z m 7.26,0 c 0,-38.199 -30.94,-69.152 -69.14,-69.152 -38.2,0 -69.15,30.953 -69.15,69.152 0,38.192 30.95,69.141 69.15,69.141 38.2,0 69.14,-30.949 69.14,-69.141"/></g></g></svg>